<svg xmlns="http://www.w3.org/2000/svg" xmlns:xlink="http://www.w3.org/1999/xlink" width="26" height="26" viewBox="0 0 26 26">
  <defs>
    <clipPath id="clip-path">
      <rect id="Rectangle_768" data-name="Rectangle 768" width="26" height="26" fill="#505050" opacity="0.55"/>
    </clipPath>
  </defs>
  <g id="camera" clip-path="url(#clip-path)">
    <g id="webcam" transform="translate(2.169)">
      <path id="Path_1413" data-name="Path 1413" d="M20.8,23.4H17.238l-1.231-4.918a9.965,9.965,0,1,0-10.346,0L4.429,23.4H.868A.866.866,0,0,0,0,24.267v.867A.867.867,0,0,0,.868,26H20.8a.867.867,0,0,0,.867-.867v-.867A.866.866,0,0,0,20.8,23.4ZM1.735,9.969A9.088,9.088,0,1,1,6.371,17.9,9.093,9.093,0,0,1,1.735,9.969Zm4.71,8.951.034.016c.069.033.14.063.21.1.106.048.212.1.321.142.126.052.253.1.382.146l.127.047a9.956,9.956,0,0,0,6.631,0c.041-.014.081-.03.121-.043.13-.048.26-.1.39-.149.1-.043.2-.087.3-.135.076-.034.152-.066.226-.1l.033-.015L16.344,23.4H5.323ZM20.8,25.133H.868v-.867H20.8Zm0,0" transform="translate(-0.002 0)" fill="#505050"/>
      <path id="Path_1414" data-name="Path 1414" d="M10.134,5.869A1.733,1.733,0,1,0,8.4,4.136,1.733,1.733,0,0,0,10.134,5.869Zm0-2.6a.867.867,0,1,1-.867.867A.866.866,0,0,1,10.134,3.27Zm0,0" transform="translate(0.698 0.2)" fill="#505050"/>
      <path id="Path_1415" data-name="Path 1415" d="M10.1,10.6A1.3,1.3,0,1,0,8.8,9.3,1.3,1.3,0,0,0,10.1,10.6Zm0-1.733a.433.433,0,1,1-.433.433A.433.433,0,0,1,10.1,8.869Zm0,0" transform="translate(0.731 0.667)" fill="#505050"/>
      <path id="Path_1416" data-name="Path 1416" d="M10.234,15.935A3.036,3.036,0,0,0,13.266,12.9V9.435a3.033,3.033,0,0,0-6.066,0V12.9A3.036,3.036,0,0,0,10.234,15.935Zm-2.166-6.5a2.166,2.166,0,1,1,4.333,0V12.9a2.166,2.166,0,1,1-4.333,0Zm0,0" transform="translate(0.598 0.534)" fill="#505050"/>
      <line id="Line_85" data-name="Line 85" x2="21" y2="21" transform="translate(0.164 2.5)" fill="none" stroke="#505050" stroke-linecap="round" stroke-width="1"/>
    </g>
  </g>
</svg>
