<svg xmlns="http://www.w3.org/2000/svg" xmlns:xlink="http://www.w3.org/1999/xlink" width="24" height="24" viewBox="0 0 24 24">
  <defs>
    <clipPath id="clip-path">
      <rect id="Rectangle_761" data-name="Rectangle 761" width="24" height="24" transform="translate(1150 200)" fill="#fff" opacity="0.55"/>
    </clipPath>
  </defs>
  <g id="Mask_Group_8" data-name="Mask Group 8" transform="translate(-1150 -200)" clip-path="url(#clip-path)">
    <g id="Camera-01_1976059" transform="translate(1150 201.2)">
      <path id="Path_1406" data-name="Path 1406" d="M23.519,7.2H20.731l-.857-2.418A1.822,1.822,0,0,0,18.02,3.6H10.78A1.822,1.822,0,0,0,8.926,4.782L8.069,7.2H5.281C3.486,7.2,2.4,8.7,2.4,10.492V22.216A2.736,2.736,0,0,0,5.281,25.2H23.518A2.736,2.736,0,0,0,26.4,22.216V10.492C26.4,8.7,25.314,7.2,23.519,7.2ZM25.2,22.216A1.6,1.6,0,0,1,23.519,24H5.281A1.6,1.6,0,0,1,3.6,22.216V10.492C3.6,9.415,4.2,8.4,5.281,8.4H8.538a.6.6,0,0,0,.618-.376l1.006-2.9c.089-.266.337-.326.618-.326H18.02a.582.582,0,0,1,.618.361l1.006,2.905c.089.265.337.334.618.334h3.257C24.6,8.4,25.2,9.415,25.2,10.492Z" transform="translate(-2.4 -3.6)" fill="#fff"/>
      <path id="Path_1407" data-name="Path 1407" d="M14.4,9.19A6.513,6.513,0,1,0,20.914,15.7,6.521,6.521,0,0,0,14.4,9.19Zm0,11.724A5.211,5.211,0,1,1,19.61,15.7,5.217,5.217,0,0,1,14.4,20.914Z" transform="translate(-2.4 -3.6)" fill="#fff"/>
    </g>
  </g>
</svg>
