<svg xmlns="http://www.w3.org/2000/svg" xmlns:xlink="http://www.w3.org/1999/xlink" width="22" height="22" viewBox="0 0 22 22">
  <defs>
    <clipPath id="clip-path">
      <rect id="Rectangle_760" data-name="Rectangle 760" width="22" height="22" transform="translate(1119 123)" fill="#fff" opacity="0.55"/>
    </clipPath>
  </defs>
  <g id="notes" transform="translate(-1119 -123)" clip-path="url(#clip-path)">
    <g id="Notes-01_2034999" transform="translate(1119 123.354)">
      <path id="Path_1402" data-name="Path 1402" d="M25.812,27.519a.427.427,0,0,1-.429-.392.437.437,0,0,1,.392-.466l3.636-.28L28.049,8.259,9.517,9.676a.434.434,0,0,1-.466-.392.424.424,0,0,1,.392-.466L28.4,7.383a.414.414,0,0,1,.466.392L30.3,26.735a.506.506,0,0,1-.112.317.46.46,0,0,1-.3.149l-4.064.3C25.83,27.519,25.83,27.519,25.812,27.519Z" transform="translate(-8.305 -7.382)" fill="#fff"/>
      <path id="Path_1403" data-name="Path 1403" d="M22.463,28.8H8.666a.422.422,0,0,1-.429-.429V9.358a.422.422,0,0,1,.429-.429H27.683a.422.422,0,0,1,.429.429v13.8A5.645,5.645,0,0,1,22.463,28.8ZM9.076,27.964H22.463a4.79,4.79,0,0,0,4.792-4.792V9.786H9.076Z" transform="translate(-8.237 -7.51)" fill="#fff"/>
      <path id="Path_1404" data-name="Path 1404" d="M23.819,30.051a.422.422,0,0,1-.429-.429V24.327a.422.422,0,0,1,.429-.429h5.127a.429.429,0,0,1,0,.858h-4.7v4.885A.43.43,0,0,1,23.819,30.051Z" transform="translate(-9.5 -8.758)" fill="#fff"/>
      <path id="Path_1405" data-name="Path 1405" d="M11.808,15.732a1.878,1.878,0,0,1-1.883-1.883v-4.4a1.878,1.878,0,0,1,1.883-1.883,1.919,1.919,0,0,1,1.38.6.857.857,0,1,1-1.249,1.175c-.056-.056-.317-.037-.317.131v4.4c0,.205.354.205.354,0V10.922a.858.858,0,1,1,1.715,0v2.927A1.866,1.866,0,0,1,11.808,15.732Z" transform="translate(-8.378 -7.397)" fill="#fff"/>
    </g>
  </g>
</svg>
