<svg xmlns="http://www.w3.org/2000/svg" xmlns:xlink="http://www.w3.org/1999/xlink" width="26" height="26" viewBox="0 0 26 26">
  <defs>
    <clipPath id="clip-path">
      <rect id="Rectangle_780" data-name="Rectangle 780" width="26" height="26" transform="translate(1200 691)" fill="#505050" opacity="0.55"/>
    </clipPath>
  </defs>
  <g id="clear" transform="translate(-1200 -691)" clip-path="url(#clip-path)">
    <g id="trash" transform="translate(1201.467 691)">
      <g id="Group_1879" data-name="Group 1879" transform="translate(0 0)">
        <g id="Group_1878" data-name="Group 1878">
          <path id="Path_1425" data-name="Path 1425" d="M21.733,7.9H4.866a.667.667,0,0,0-.5.167.567.567,0,0,0-.167.5l1.733,15.1a3.3,3.3,0,0,0,3.3,2.9h8.4a3.3,3.3,0,0,0,3.333-3L22.4,8.5a.567.567,0,0,0-.167-.433A.666.666,0,0,0,21.733,7.9Zm-2.1,15.6a1.933,1.933,0,0,1-2,1.733h-8.4a1.9,1.9,0,0,1-1.967-1.7L5.6,9.231H21Z" transform="translate(-1.766 -0.564)" fill="#505050"/>
          <path id="Path_1426" data-name="Path 1426" d="M23.979,3H17.113V1.934A1.867,1.867,0,0,0,15.314,0h-4.3a1.867,1.867,0,0,0-1.9,1.832q0,.051,0,.1V3H2.246a.667.667,0,0,0,0,1.333H23.979a.667.667,0,1,0,0-1.333Zm-8.2-1.067V3H10.446V1.934a.533.533,0,0,1,.567-.6h4.2a.533.533,0,0,1,.57.494A.527.527,0,0,1,15.779,1.934Z" transform="translate(-1.58 0)" fill="#505050"/>
        </g>
      </g>
    </g>
  </g>
</svg>
