<svg id="criss-cross" xmlns="http://www.w3.org/2000/svg" width="18" height="18" viewBox="0 0 18 18">
  <path id="Path_2623" data-name="Path 2623" d="M9,0a9,9,0,1,0,9,9A9.01,9.01,0,0,0,9,0ZM9,0" fill="#f44336"/>
  <path id="Path_2624" data-name="Path 2624" d="M161.939,160.938a.708.708,0,1,1-1,1l-2.129-2.129-2.128,2.129a.708.708,0,0,1-1-1l2.129-2.129-2.129-2.129a.708.708,0,0,1,1-1l2.128,2.129,2.129-2.129a.708.708,0,1,1,1,1l-2.129,2.129Zm0,0" transform="translate(-149.809 -149.809)" fill="#fafafa"/>
</svg>
