<svg xmlns="http://www.w3.org/2000/svg" width="15.667" height="15.667" viewBox="0 0 15.667 15.667">
  <g id="brands-and-logotypes" transform="translate(0 0)">
    <path id="Path_1" data-name="Path 1" d="M3.672,104.982a4.136,4.136,0,0,1,.585-2.126v-2.641H1.616a7.837,7.837,0,0,0,0,9.534H4.257v-2.641A4.136,4.136,0,0,1,3.672,104.982Z" transform="translate(0 -97.149)" fill="#fbbd00"/>
    <path id="Path_2" data-name="Path 2" d="M197.836,373.544,196,375.379l1.836,1.836A7.774,7.774,0,0,0,202.6,375.6v-2.638h-2.638A4.161,4.161,0,0,1,197.836,373.544Z" transform="translate(-190.003 -361.549)" fill="#0f9d58"/>
    <path id="Path_3" data-name="Path 3" d="M55.464,325.477l-2.641,2.641a7.96,7.96,0,0,0,.678.772,7.782,7.782,0,0,0,5.539,2.294v-3.672A4.163,4.163,0,0,1,55.464,325.477Z" transform="translate(-51.207 -315.518)" fill="#31aa52"/>
    <path id="Path_4" data-name="Path 4" d="M263.833,199.119a7.9,7.9,0,0,0-.128-1.419l-.069-.376H256V201h3.716a4.142,4.142,0,0,1-1.588,1.7l2.638,2.638a7.956,7.956,0,0,0,.772-.678A7.782,7.782,0,0,0,263.833,199.119Z" transform="translate(-248.167 -191.286)" fill="#3c79e6"/>
    <path id="Path_5" data-name="Path 5" d="M200.779,4.891l.325.325,2.6-2.6-.325-.325A7.782,7.782,0,0,0,197.836,0L196,1.836l1.836,1.836A4.134,4.134,0,0,1,200.779,4.891Z" transform="translate(-190.003 0)" fill="#cf2d48"/>
    <path id="Path_6" data-name="Path 6" d="M59.039,3.672V0A7.782,7.782,0,0,0,53.5,2.294a7.95,7.95,0,0,0-.678.772l2.641,2.641a4.163,4.163,0,0,1,3.576-2.036Z" transform="translate(-51.206 0)" fill="#eb4132"/>
  </g>
</svg>
