<svg id="hide_icon" data-name="hide icon" xmlns="http://www.w3.org/2000/svg" width="20" height="16.4" viewBox="0 0 20 16.4">
  <path id="view" d="M17.593,9.951A9.856,9.856,0,0,0,8.85,4.5,9.857,9.857,0,0,0,.107,9.952a.994.994,0,0,0,0,.9A9.856,9.856,0,0,0,8.85,16.3a9.857,9.857,0,0,0,8.743-5.452A.994.994,0,0,0,17.593,9.951ZM8.85,14.825A4.425,4.425,0,1,1,13.275,10.4,4.425,4.425,0,0,1,8.85,14.825Zm0-7.375a2.929,2.929,0,0,0-.778.116A1.47,1.47,0,0,1,6.016,9.622,2.943,2.943,0,1,0,8.85,7.45Z" transform="translate(1.022 -1.944)" fill="#505050"/>
</svg>
