<svg xmlns="http://www.w3.org/2000/svg" width="76.356" height="59.847" viewBox="0 0 76.356 59.847">
  <g id="Group_1819" data-name="Group 1819" transform="translate(-27.667 -25.809)">
    <g id="Group_1817" data-name="Group 1817" transform="translate(-4597.832 140.809)">
      <g id="Group_734" data-name="Group 734" transform="translate(4652 -101.474)">
        <path id="Path_1268" data-name="Path 1268" d="M77.476,39.828V50.763l-9.892,6.431-10.221-6.16v-11.6l-3.514-2.016c0,.052-.062,14.707-.062,14.707a1.9,1.9,0,0,0,.944,1.637l11.908,6.9a1.893,1.893,0,0,0,1.955-.034l11.5-7.218a1.889,1.889,0,0,0,.881-1.6V37.8Z" transform="translate(-53.787 -37.415)" fill="#0073db"/>
      </g>
      <g id="Group_735" data-name="Group 735" transform="translate(4652.03 -115)">
        <path id="Path_1269" data-name="Path 1269" d="M67.561,38.323a.519.519,0,0,1-.267-.073l-13.21-7.713a.53.53,0,0,1,0-.917l13.2-7.6a.534.534,0,0,1,.529,0l13.2,7.6a.53.53,0,0,1,0,.917l-13.2,7.713A.526.526,0,0,1,67.561,38.323ZM55.41,30.082l12.151,7.1,12.141-7.1L67.555,23.089Z" transform="translate(-53.821 -21.947)" fill="#0073db"/>
      </g>
      <g id="Group_736" data-name="Group 736" transform="translate(4652.03 -105.624)">
        <path id="Path_1270" data-name="Path 1270" d="M67.555,43.292a.518.518,0,0,1-.266-.073l-13.2-7.69a.53.53,0,0,1-.005-.914l3.083-1.845a.53.53,0,0,1,.545.91L55.4,35.064l12.16,7.083,12.17-7.108-2.276-1.387A.531.531,0,0,1,78,32.746L81.035,34.6a.53.53,0,0,1-.008.91l-13.2,7.713A.527.527,0,0,1,67.555,43.292Z" transform="translate(-53.821 -32.669)" fill="#0073db"/>
      </g>
      <g id="Group_737" data-name="Group 737" transform="translate(4665.79 -101.089)">
        <path id="Path_1271" data-name="Path 1271" d="M79.678,39.884V50.818L69.557,57.245v3.726h0a1.906,1.906,0,0,0,1.009-.289L82.13,53.465a1.945,1.945,0,0,0,.942-1.6V37.855Z" transform="translate(-69.557 -37.855)" fill="#0073db"/>
      </g>
    </g>
    <g id="Group_1818" data-name="Group 1818" transform="translate(-4650.311 177)">
      <g id="Group_733" data-name="Group 733" transform="translate(4677.977 -109.639)">
        <path id="Path_1261" data-name="Path 1261" d="M93.3,42.749v-9.4a1.187,1.187,0,1,1,2.373,0v9.4a3.647,3.647,0,0,0,7.294,0v-9.4a1.187,1.187,0,1,1,2.375,0v9.4a6.021,6.021,0,0,1-12.042,0Z" transform="translate(-93.303 -30.778)" fill="#0073db"/>
        <path id="Path_1262" data-name="Path 1262" d="M125.462,45.016v4.821a1.188,1.188,0,1,1-2.376,0V45.016a3.646,3.646,0,1,0-7.292,0v4.821a1.188,1.188,0,1,1-2.375,0V45.016a6.021,6.021,0,1,1,12.043,0Z" transform="translate(-99.96 -33.045)" fill="#0073db"/>
        <path id="Path_1263" data-name="Path 1263" d="M133.826,33.933a1.187,1.187,0,1,1,1.679-1.679,1.187,1.187,0,0,1-1.679,1.679Zm-.36,13.579V37.843a1.187,1.187,0,0,1,2.374,0v9.669a1.187,1.187,0,1,1-2.374,0Z" transform="translate(-106.594 -30.695)" fill="#0073db"/>
        <path id="Path_1264" data-name="Path 1264" d="M147.384,37.25a1.2,1.2,0,0,1-1.2,1.2h-1.7v8.469a1.188,1.188,0,1,1-2.376,0V38.449h-1.727a1.2,1.2,0,0,1-1.174-1.2,1.175,1.175,0,0,1,1.174-1.175h1.727v-4.8a1.188,1.188,0,0,1,2.376,0v4.8h1.7A1.182,1.182,0,0,1,147.384,37.25Z" transform="translate(-108.493 -30.102)" fill="#0073db"/>
        <path id="Path_1265" data-name="Path 1265" d="M163.4,45.016a1.184,1.184,0,0,1-1.2,1.174h-8.278a3.659,3.659,0,0,0,3.456,2.47,4.7,4.7,0,0,0,2.685-.791,1.148,1.148,0,0,1,1.584.552A1.25,1.25,0,0,1,161.076,50a5.88,5.88,0,0,1-3.693,1.031,6.021,6.021,0,1,1,0-12.042A5.907,5.907,0,0,1,163.4,45.016Zm-9.478-1.2h6.934a3.509,3.509,0,0,0-3.478-2.446A3.673,3.673,0,0,0,153.926,43.814Z" transform="translate(-112.516 -33.045)" fill="#0073db"/>
        <g id="Group_731" data-name="Group 731" transform="translate(50.843 0.922)">
          <path id="Path_1266" data-name="Path 1266" d="M180.948,48.853a1.711,1.711,0,0,1-1.594-1.08l-.8-2.258h-5.442l-.931,2.261a1.382,1.382,0,0,1-1.427,1.049l-.384-.024a1.69,1.69,0,0,1-1.034-1.933l5.141-14.326a1.53,1.53,0,0,1,1.459-1.062,1.5,1.5,0,0,1,1.412,1.073l4.867,14.292a1.354,1.354,0,0,1,.025,1.051,1.642,1.642,0,0,1-.909.905A1.485,1.485,0,0,1,180.948,48.853Zm-8.234-3.937h6.266l.933,2.646a1.1,1.1,0,0,0,1.238.671,1.042,1.042,0,0,0,.531-.551.782.782,0,0,0-.021-.615l-4.88-14.325a.894.894,0,0,0-.843-.66.932.932,0,0,0-.891.654L169.91,47.045a1.082,1.082,0,0,0,.648,1.181h.2a.806.806,0,0,0,.858-.628Zm5.755-1.825h-5.115l2.587-7.354Zm-4.267-.6h3.426l-1.693-4.928Z" transform="translate(-169.294 -31.48)" fill="#0073db"/>
        </g>
        <g id="Group_732" data-name="Group 732" transform="translate(64.674 0.971)">
          <path id="Path_1267" data-name="Path 1267" d="M200.123,48.873a1.55,1.55,0,0,1-1.28-.708l-3.9-6.392h-1.978V47.4a1.489,1.489,0,0,1-1.5,1.475,1.472,1.472,0,0,1-1.5-1.475V33.052a1.531,1.531,0,0,1,1.523-1.5h5.086a5.161,5.161,0,0,1,5.074,5.047,5.329,5.329,0,0,1-3.408,4.829l3.171,5.165a1.517,1.517,0,0,1-.505,2.067A1.442,1.442,0,0,1,200.123,48.873Zm-7.759-7.7h2.914l4.069,6.669a.971.971,0,0,0,1.24.31.915.915,0,0,0,.313-1.244l-3.55-5.783.345-.126a4.726,4.726,0,0,0,3.351-4.4,4.552,4.552,0,0,0-4.473-4.45h-5.037a.935.935,0,0,0-.971.9V47.4a.869.869,0,0,0,.9.875.879.879,0,0,0,.9-.875Zm4.113-1.8h-4.113V33.952h4.113a2.738,2.738,0,0,1,2.795,2.67A2.774,2.774,0,0,1,196.478,39.374Zm-3.514-.6h3.514a2.178,2.178,0,0,0,2.2-2.152,2.143,2.143,0,0,0-2.2-2.07h-3.514Z" transform="translate(-189.965 -31.553)" fill="#0073db"/>
        </g>
      </g>
    </g>
  </g>
</svg>
