<svg xmlns="http://www.w3.org/2000/svg" width="25.125" height="25.125" viewBox="0 0 25.125 25.125">
  <g id="Icon_ionic-md-close-circle-outline" data-name="Icon ionic-md-close-circle-outline" transform="translate(-3.375 -3.375)">
    <path id="Path_1339" data-name="Path 1339" d="M15.938,5.912A10.022,10.022,0,1,1,8.847,8.847a9.984,9.984,0,0,1,7.091-2.935m0-2.537A12.563,12.563,0,1,0,28.5,15.938,12.561,12.561,0,0,0,15.938,3.375Z" fill="#505050"/>
    <g id="Group_1673" data-name="Group 1673" transform="translate(9.656 9.656)">
      <path id="Path_1340" data-name="Path 1340" d="M23.25,21.492,21.492,23.25l-4.524-4.524L12.445,23.25l-1.758-1.758,4.524-4.524-4.524-4.524,1.758-1.758,4.524,4.524,4.524-4.524,1.758,1.758-4.524,4.524Z" transform="translate(-10.688 -10.688)" fill="#505050"/>
    </g>
  </g>
</svg>
