<svg xmlns="http://www.w3.org/2000/svg" xmlns:xlink="http://www.w3.org/1999/xlink" width="29" height="29" viewBox="0 0 29 29">
  <defs>
    <clipPath id="clip-path">
      <rect id="Rectangle_765" data-name="Rectangle 765" width="29" height="29" fill="#4e67eb" opacity="0.55"/>
    </clipPath>
  </defs>
  <g id="pause" clip-path="url(#clip-path)">
    <g id="_video_camera_172629">
      <rect id="Rectangle_766" data-name="Rectangle 766" width="29" height="29" fill="none"/>
      <path id="Path_1408" data-name="Path 1408" d="M24.82,6.72l-7.54,4.06v4.64l7.54,4.06Z" transform="translate(3.6 1.4)" fill="none" stroke="#505050" stroke-linecap="round" stroke-miterlimit="10" stroke-width="1"/>
      <path id="Path_1409" data-name="Path 1409" d="M20.78,19.88a2.32,2.32,0,0,1-2.32,2.32H2.8A2.32,2.32,0,0,1,.48,19.88V7.12A2.32,2.32,0,0,1,2.8,4.8H18.46a2.32,2.32,0,0,1,2.32,2.32Z" transform="translate(0.1 1)" fill="none" stroke="#505050" stroke-linecap="round" stroke-miterlimit="10" stroke-width="1"/>
      <g id="Ellipse_83" data-name="Ellipse 83" transform="translate(4.833 8.458)" fill="none" stroke="#505050" stroke-width="1">
        <circle cx="6.042" cy="6.042" r="6.042" stroke="none"/>
        <circle cx="6.042" cy="6.042" r="5.542" fill="none"/>
      </g>
    </g>
    <path id="Path_1410" data-name="Path 1410" d="M8802.625,372.328v4.531l3.367-2.253-1.795-1.215Z" transform="translate(-8793.108 -360.245)" fill="none" stroke="#505050" stroke-width="1"/>
  </g>
</svg>
