<svg xmlns="http://www.w3.org/2000/svg" xmlns:xlink="http://www.w3.org/1999/xlink" width="23" height="23" viewBox="0 0 23 23">
  <defs>
    <clipPath id="clip-path">
      <rect id="Rectangle_761" data-name="Rectangle 761" width="23" height="23" transform="translate(1192 263)" fill="#505050" opacity="0.55"/>
    </clipPath>
  </defs>
  <g id="pencil" transform="translate(-1192 -263)" clip-path="url(#clip-path)">
    <path id="pen" d="M20.359.924a3.167,3.167,0,0,0-4.475,0l-1.12,1.126L2.838,13.97,2.812,14c-.006.006-.006.013-.013.013-.013.019-.032.038-.044.057s-.007.006-.007.013-.019.032-.032.051-.006.012-.012.019-.013.032-.019.051-.006.006-.006.013L.034,22.167a.623.623,0,0,0,.152.645A.637.637,0,0,0,.635,23a.747.747,0,0,0,.2-.032l7.95-2.652c.006,0,.006,0,.013-.006a.229.229,0,0,0,.057-.026.022.022,0,0,0,.013-.006c.019-.013.044-.026.063-.038s.038-.031.057-.044S9,20.186,9,20.18s.019-.012.026-.025L22.074,7.108a3.167,3.167,0,0,0,0-4.475ZM8.585,18.825,4.18,14.419,15.206,3.393,19.612,7.8ZM3.559,15.59l3.849,3.849L1.629,21.363ZM21.182,6.222l-.671.677L16.105,2.494l.678-.677a1.9,1.9,0,0,1,2.684,0l1.722,1.722a1.9,1.9,0,0,1-.006,2.684Zm0,0" transform="translate(1192 263.003)" fill="#505050"/>
  </g>
</svg>
