<svg xmlns="http://www.w3.org/2000/svg" width="17.105" height="25.656" viewBox="0 0 17.105 25.656">
  <g id="rupee" transform="translate(-8.229 -6.583)">
    <g id="Group_2501" data-name="Group 2501" transform="translate(8.229 6.583)">
      <g id="Group_2500" data-name="Group 2500">
        <path id="Path_2621" data-name="Path 2621" d="M175.671,133.7H174.1a7.031,7.031,0,0,0-1.317-2.851h2.888a1.425,1.425,0,1,0,0-2.851H161.418a1.425,1.425,0,0,0,0,2.851h5.7a4.268,4.268,0,0,1,4.014,2.851h-9.715a1.425,1.425,0,0,0,0,2.851h9.715a4.268,4.268,0,0,1-4.014,2.851h-5.7a1.426,1.426,0,0,0-1.317.881,1.414,1.414,0,0,0,0,1.089,1.358,1.358,0,0,0,.311.465l11.4,11.4a1.425,1.425,0,1,0,2.018-2.013l-8.971-8.971h2.261a7.133,7.133,0,0,0,6.981-5.7h1.571a1.425,1.425,0,1,0,0-2.851Z" transform="translate(-159.992 -128)" fill="#161617"/>
      </g>
    </g>
  </g>
</svg>
