<svg xmlns="http://www.w3.org/2000/svg" xmlns:xlink="http://www.w3.org/1999/xlink" width="26" height="26" viewBox="0 0 26 26">
  <defs>
    <clipPath id="clip-path">
      <rect id="Rectangle_747" data-name="Rectangle 747" width="26" height="26" transform="translate(166 254)" fill="#505050" stroke="#707070" stroke-width="1"/>
    </clipPath>
  </defs>
  <g id="session_details" data-name="session details" transform="translate(-166 -254)" clip-path="url(#clip-path)">
    <path id="video" d="M24.375,5.188h-.721a1.627,1.627,0,0,0-1.141.468l-2.2,2.171V6.813a2.438,2.438,0,0,0-2.437-2.437H2.438A2.44,2.44,0,0,0,0,6.813v13A2.438,2.438,0,0,0,2.438,22.25H17.875a2.438,2.438,0,0,0,2.438-2.437V18.82l2.2,2.171a1.627,1.627,0,0,0,1.141.468h.721A1.625,1.625,0,0,0,26,19.834V6.813A1.625,1.625,0,0,0,24.375,5.188ZM2.438,20.625a.813.813,0,0,1-.812-.812v-13A.812.812,0,0,1,2.438,6H17.875a.813.813,0,0,1,.813.813v13a.814.814,0,0,1-.812.813Zm21.938-.791h-.812l-3.25-3.25v-.022L19.5,15.75V10.875l4.063-4.062h.813Z" transform="translate(166 253.688)" fill="#505050"/>
  </g>
</svg>
