<svg id="undraw_Astronaut_xko2" xmlns="http://www.w3.org/2000/svg" xmlns:xlink="http://www.w3.org/1999/xlink" width="165" height="165" viewBox="0 0 165 165">
  <defs>
    <linearGradient id="linear-gradient" x1="0.5" y1="1" x2="0.5" gradientUnits="objectBoundingBox">
      <stop offset="0" stop-color="gray" stop-opacity="0.251"/>
      <stop offset="0.535" stop-color="gray" stop-opacity="0.122"/>
      <stop offset="1" stop-color="gray" stop-opacity="0.102"/>
    </linearGradient>
  </defs>
  <path id="Path_1364" data-name="Path 1364" d="M401,168.5a82.936,82.936,0,0,1-1.09,13.445c-.059.367-.122.734-.188,1.1a82.615,82.615,0,0,1-45.783,59.976l-.345.163q-1.384.653-2.8,1.256c-.254.107-.505.213-.762.317a81.825,81.825,0,0,1-15.849,4.753c-.24.048-.481.091-.721.134a82.789,82.789,0,0,1-14.9,1.355h-.229c-.444,0-.888,0-1.33-.016-.084,0-.168,0-.252,0a82.753,82.753,0,0,1-14.832-1.645c-.238-.05-.476-.1-.714-.152a81.494,81.494,0,0,1-12.878-3.876c-.256-.1-.508-.2-.762-.3q-1.414-.568-2.8-1.192l-.344-.156a82.622,82.622,0,0,1-47.143-60.608c-.066-.367-.129-.734-.188-1.1a83.43,83.43,0,0,1-.009-26.831c.082-.51.17-1.022.265-1.53A81.35,81.35,0,0,1,240,143.059q.17-.527.347-1.054a82.525,82.525,0,0,1,159.309,11.579c.1.508.184,1.02.265,1.53A82.978,82.978,0,0,1,401,168.5Z" transform="translate(-236 -86)" fill="#6c63ff" opacity="0.1"/>
  <path id="Path_1365" data-name="Path 1365" d="M533.272,222.174h-.44c-.09,0-.311-.352-.311-.453v-.409c0-.319-.361-1.194-.68-1.194s-.68.875-.68,1.194v.409c0,.144-.111.453-.247.453h-.44c-.319,0-1.194.248-1.194.567s.875.567,1.194.567H531c.166,0,.162.171.162.258v.545c0,.319.361,1.194.68,1.194s.68-.875.68-1.194v-.545c0-.072.146-.258.227-.258h.525c.319,0,1.194-.248,1.194-.567S533.591,222.174,533.272,222.174Z" transform="translate(-462.808 -189.721)" fill="#2196f3"/>
  <path id="Path_1366" data-name="Path 1366" d="M256.88,323.161H256.3c-.118,0-.411-.465-.411-.6v-.54c0-.421-.477-1.578-.9-1.578s-.9,1.156-.9,1.578v.54c0,.19-.147.6-.326.6h-.581c-.421,0-1.578.327-1.578.749s1.156.749,1.578.749h.693c.22,0,.214.226.214.341v.72c0,.421.477,1.578.9,1.578s.9-1.156.9-1.578V325c0-.1.193-.341.3-.341h.693c.421,0,1.578-.327,1.578-.749S257.3,323.161,256.88,323.161Z" transform="translate(-248.069 -267.309)" fill="url(#linear-gradient)"/>
  <path id="Path_1367" data-name="Path 1367" d="M530.88,219.161H530.3c-.118,0-.411-.465-.411-.6v-.54c0-.421-.477-1.578-.9-1.578s-.9,1.156-.9,1.578v.54c0,.19-.147.6-.326.6h-.581c-.421,0-1.578.327-1.578.749s1.156.749,1.578.749h.693c.219,0,.214.226.214.341v.72c0,.421.477,1.578.9,1.578s.9-1.156.9-1.578V221c0-.1.193-.341.3-.341h.693c.421,0,1.578-.327,1.578-.749S531.3,219.161,530.88,219.161Z" transform="translate(-459.968 -186.88)" fill="url(#linear-gradient)"/>
  <path id="Path_1368" data-name="Path 1368" d="M807.88,266.161H807.3c-.118,0-.411-.465-.411-.6v-.54c0-.421-.477-1.578-.9-1.578s-.9,1.156-.9,1.578v.54c0,.19-.147.6-.326.6h-.581c-.421,0-1.578.327-1.578.749s1.156.749,1.578.749h.693c.219,0,.214.226.214.341v.72c0,.421.477,1.578.9,1.578s.9-1.156.9-1.578V268c0-.1.193-.341.3-.341h.693c.421,0,1.578-.327,1.578-.749S808.3,266.161,807.88,266.161Z" transform="translate(-674.186 -223.228)" fill="url(#linear-gradient)"/>
  <path id="Path_1369" data-name="Path 1369" d="M707.123,254.726h-.28c-.057,0-.224-.222-.224-.286v-.261c0-.2-.25-.761-.453-.761s-.453.558-.453.761v.261c0,.092-.005.286-.092.286h-.28c-.2,0-.761.137-.761.34s.558.34.761.34h.334c.106,0,.038.154.038.209v.348c0,.2.25.761.453.761s.453-.558.453-.761v-.347c0-.046.119-.209.17-.209h.334c.2,0,.761-.137.761-.34S707.327,254.726,707.123,254.726Z" transform="translate(-598.376 -215.473)" fill="#1976d2"/>
  <path id="Path_1370" data-name="Path 1370" d="M354.132,307.956h-.457c-.093,0-.365-.362-.365-.467v-.425c0-.331-.407-1.241-.739-1.241s-.739.909-.739,1.241v.425c0,.149-.008.467-.149.467h-.457c-.331,0-1.241.223-1.241.554s.909.554,1.241.554h.545c.173,0,.061.25.061.341v.566c0,.331.407,1.241.739,1.241s.739-.909.739-1.241v-.567c0-.075.194-.341.277-.341h.545c.331,0,1.241-.223,1.241-.554S354.464,307.956,354.132,307.956Z" transform="translate(-324.15 -256.002)" fill="url(#linear-gradient)"/>
  <path id="Path_1371" data-name="Path 1371" d="M704.132,250.956h-.457c-.093,0-.365-.362-.365-.467v-.425c0-.331-.407-1.241-.739-1.241s-.739.909-.739,1.241v.425c0,.149-.008.467-.149.467h-.457c-.331,0-1.241.223-1.241.554s.909.554,1.241.554h.545c.173,0,.061.25.061.341v.566c0,.331.407,1.241.739,1.241s.739-.909.739-1.241v-.567c0-.075.193-.341.277-.341h.545c.331,0,1.241-.223,1.241-.554S704.464,250.956,704.132,250.956Z" transform="translate(-594.823 -211.921)" fill="url(#linear-gradient)"/>
  <path id="Path_1372" data-name="Path 1372" d="M357.123,311.726h-.28c-.057,0-.224-.222-.224-.286v-.261c0-.2-.25-.761-.453-.761s-.453.558-.453.761v.261c0,.092-.005.286-.092.286h-.28c-.2,0-.761.137-.761.34s.558.34.761.34h.334c.106,0,.038.154.038.209v.348c0,.2.25.761.453.761s.453-.558.453-.761v-.347c0-.046.119-.209.17-.209h.334c.2,0,.761-.137.761-.34S357.327,311.726,357.123,311.726Z" transform="translate(-327.703 -259.554)" fill="#1976d2"/>
  <circle id="Ellipse_47" data-name="Ellipse 47" cx="1.7" cy="1.7" r="1.7" transform="translate(92.15 32.227)" fill="#64b5f6"/>
  <circle id="Ellipse_48" data-name="Ellipse 48" cx="0.567" cy="0.567" r="0.567" transform="translate(89.884 49.528)" fill="#0071bc"/>
  <circle id="Ellipse_49" data-name="Ellipse 49" cx="1.577" cy="1.577" r="1.577" transform="translate(24.836 35.627)" fill="#64b5f6"/>
  <circle id="Ellipse_50" data-name="Ellipse 50" cx="0.789" cy="0.789" r="0.789" transform="translate(11.69 42.384)" fill="#64b5f6"/>
  <circle id="Ellipse_51" data-name="Ellipse 51" cx="0.789" cy="0.789" r="0.789" transform="translate(76.738 58.476)" fill="#82a9ff"/>
  <circle id="Ellipse_52" data-name="Ellipse 52" cx="1.473" cy="1.473" r="1.473" transform="translate(17.423 71.872)" fill="#82a9ff"/>
  <circle id="Ellipse_53" data-name="Ellipse 53" cx="1.376" cy="1.376" r="1.376" transform="translate(46.739 32.371)" fill="url(#linear-gradient)"/>
  <circle id="Ellipse_54" data-name="Ellipse 54" cx="1.376" cy="1.376" r="1.376" transform="translate(46.965 49.597)" fill="url(#linear-gradient)"/>
  <circle id="Ellipse_55" data-name="Ellipse 55" cx="1.376" cy="1.376" r="1.376" transform="translate(119.266 28.745)" fill="url(#linear-gradient)"/>
  <circle id="Ellipse_56" data-name="Ellipse 56" cx="1.376" cy="1.376" r="1.376" transform="translate(150.77 53.223)" fill="url(#linear-gradient)"/>
  <circle id="Ellipse_57" data-name="Ellipse 57" cx="0.84" cy="0.84" r="0.84" transform="translate(47.274 32.907)" fill="#0d47a1"/>
  <circle id="Ellipse_58" data-name="Ellipse 58" cx="1.7" cy="1.7" r="1.7" transform="translate(67.446 44.466)" fill="#64b5f6"/>
  <path id="Path_1373" data-name="Path 1373" d="M504.515,548.11a16.209,16.209,0,0,1-1.475,5.752c-.113.272-.229.542-.345.809l-.36.816a17.035,17.035,0,0,1-2.266,4.066c-.057.068-.113.136-.172.2a7.089,7.089,0,0,1-.762.737,5.21,5.21,0,0,1-3.026,1.285c-2.162.113-4.037-1.394-5.673-2.815q-2.927-2.536-5.854-5.079c-.671-.58-2.3-1.992-2.441-2.117v27.71h-.5l.3,4.694.626,9.823a82.8,82.8,0,0,1-14.9,1.355l-.412-11.162-.118-3.18-.057-1.53h-.467l-.041.832-.184,3.878-.533,11.142a82.752,82.752,0,0,1-14.832-1.645l.592-9.5.295-4.707h-.292V551.318a24.551,24.551,0,0,1-2.883,3.182,62.7,62.7,0,0,1-6.693,5.233,14.278,14.278,0,0,1-4.61,2.4,5.95,5.95,0,0,1-.762.134,4.623,4.623,0,0,1-2.119-.229,4.216,4.216,0,0,1-.68-.313c-.12-.066-.233-.136-.344-.211-1.7-1.158-2.591-3.379-3.291-5.4-.848-2.448-1.709-5.011-1.349-7.577a11.652,11.652,0,0,1,1.68-4.331c.551-.918,1.176-1.8,1.8-2.668a2.318,2.318,0,0,1,1.129-.99h0l.034-.007a.905.905,0,0,1,.174-.025,1.386,1.386,0,0,1,.17,0,2.254,2.254,0,0,1,1.217.786l1.582,1.63.762.782c.041.043.082.086.125.129l1,1.034c.655-1.131,1.315-2.269,2.01-3.382a29.268,29.268,0,0,1,4.943-6.226,16.412,16.412,0,0,1,3.221-2.312,13.534,13.534,0,0,1,3.2-1.267,5.59,5.59,0,0,1,2.9-.238,1.606,1.606,0,0,1,1,1.355.066.066,0,0,1,0,.023,6.341,6.341,0,0,1,.1,1.213c0,.252,0,.5,0,.757h21.536c-.02-.653-.039-1.369,0-1.97.007-.145.018-.283.032-.412a1.71,1.71,0,0,1,.245-.845,1.071,1.071,0,0,1,.836-.313,10.264,10.264,0,0,1,3.13.909,20.61,20.61,0,0,1,2.86,1.333,20.972,20.972,0,0,1,9.614,11.382,4.432,4.432,0,0,1,.839-1.634,5.061,5.061,0,0,1,.9-.875,5.519,5.519,0,0,1,1.8-.907,5.083,5.083,0,0,1,1.4-.215,4.5,4.5,0,0,1,.762.05,4.3,4.3,0,0,1,1.181.347,5.118,5.118,0,0,1,1.618,1.188c.122.131.236.267.345.408a7.286,7.286,0,0,1,1.342,3.139A8.118,8.118,0,0,1,504.515,548.11Z" transform="translate(-385.101 -430.349)" fill="#fff"/>
  <path id="Path_1374" data-name="Path 1374" d="M554.676,425.256h0c-1.708-6.041-7.024-10.926-13.32-10.926s-11.612,4.885-13.32,10.926h0a2.828,2.828,0,0,0-2.828,2.828v3.439h2.419c1.042,6.571,6.791,10.926,13.729,10.926s12.687-4.355,13.729-10.926h2.492v-3.365A2.9,2.9,0,0,0,554.676,425.256Z" transform="translate(-459.66 -339.915)" fill="#fff"/>
  <circle id="Ellipse_59" data-name="Ellipse 59" cx="11.247" cy="11.247" r="11.247" transform="translate(70.369 78.272)" fill="#6c63ff"/>
  <path id="Path_1375" data-name="Path 1375" d="M742.24,369.009a2.512,2.512,0,0,1-.483,1.485,2.474,2.474,0,0,1-.553.555.128.128,0,0,1-.02.016v89.03q-1.384.653-2.8,1.256V371.162a2.529,2.529,0,1,1,3.855-2.153Z" transform="translate(-623.59 -302.909)" fill="#e0e0e0"/>
  <path id="Path_1376" data-name="Path 1376" d="M802.315,377.9a55.229,55.229,0,0,1-1.09,11.719c-15.432-22.678-30.863,27.939-46.3,1.726V364.512c15.435,26.218,30.87-24.424,46.3-1.713A117.686,117.686,0,0,1,802.315,377.9Z" transform="translate(-637.315 -295.398)" fill="#6c63ff"/>
  <path id="Path_1377" data-name="Path 1377" d="M451.567,369.009a2.5,2.5,0,0,1-.854,1.89,2.327,2.327,0,0,1-.351.263v90.75q-1.414-.568-2.8-1.192V371.064a.125.125,0,0,1-.02-.016,2.474,2.474,0,0,1-.553-.555,2.53,2.53,0,1,1,4.578-1.485Z" transform="translate(-398.796 -302.909)" fill="#e0e0e0"/>
  <path id="Path_1378" data-name="Path 1378" d="M284.745,364.512v26.831c-15.885-26.23-31.77,24.471-47.655,1.681A116.779,116.779,0,0,1,236,377.9a55.959,55.959,0,0,1,1.081-11.718C252.969,389,268.857,338.277,284.745,364.512Z" transform="translate(-236 -295.398)" fill="#6c63ff"/>
  <path id="Path_1379" data-name="Path 1379" d="M559.142,433.823a11.229,11.229,0,0,1,8.979,4.475,11.247,11.247,0,1,0-19.378,11.059,11.249,11.249,0,0,1,10.4-15.534Z" transform="translate(-476.106 -353.067)" opacity="0.2"/>
  <path id="Path_1380" data-name="Path 1380" d="M405.772,333.174h-.44c-.09,0-.311-.352-.311-.453v-.409c0-.319-.361-1.194-.68-1.194s-.68.875-.68,1.194v.409c0,.144-.111.453-.247.453h-.44c-.319,0-1.194.248-1.194.567s.875.567,1.194.567h.525c.166,0,.162.171.162.258v.545c0,.319.361,1.194.68,1.194s.68-.875.68-1.194v-.545c0-.072.146-.258.227-.258h.525c.319,0,1.194-.248,1.194-.567S406.091,333.174,405.772,333.174Z" transform="translate(-364.206 -275.563)" fill="#2196f3"/>
  <circle id="Ellipse_60" data-name="Ellipse 60" cx="0.793" cy="0.793" r="0.793" transform="translate(59.626 72.646)" fill="#0d47a1"/>
  <circle id="Ellipse_61" data-name="Ellipse 61" cx="1.577" cy="1.577" r="1.577" transform="translate(144.846 56.478)" fill="#64b5f6"/>
  <circle id="Ellipse_62" data-name="Ellipse 62" cx="0.567" cy="0.567" r="0.567" transform="translate(85.691 69.02)" fill="#0071bc"/>
  <circle id="Ellipse_63" data-name="Ellipse 63" cx="0.84" cy="0.84" r="0.84" transform="translate(47.501 50.132)" fill="#0d47a1"/>
  <path id="Path_1381" data-name="Path 1381" d="M810.272,269.174h-.44c-.09,0-.311-.352-.311-.453v-.409c0-.319-.361-1.194-.68-1.194s-.68.875-.68,1.194v.409c0,.144-.111.453-.247.453h-.44c-.319,0-1.194.248-1.194.567s.875.567,1.194.567H808c.166,0,.162.171.162.258v.545c0,.319.361,1.194.68,1.194s.68-.875.68-1.194v-.545c0-.072.146-.258.227-.258h.525c.319,0,1.194-.248,1.194-.567S810.591,269.174,810.272,269.174Z" transform="translate(-677.026 -226.068)" fill="#2196f3"/>
  <circle id="Ellipse_64" data-name="Ellipse 64" cx="0.793" cy="0.793" r="0.793" transform="translate(151.306 53.608)" fill="#0d47a1"/>
  <circle id="Ellipse_65" data-name="Ellipse 65" cx="0.793" cy="0.793" r="0.793" transform="translate(119.802 29.356)" fill="#0d47a1"/>
  <circle id="Ellipse_66" data-name="Ellipse 66" cx="2.108" cy="2.108" r="2.108" transform="translate(141.709 50.508)" fill="url(#linear-gradient)"/>
  <circle id="Ellipse_67" data-name="Ellipse 67" cx="2.108" cy="2.108" r="2.108" transform="translate(111.112 54.361)" fill="url(#linear-gradient)"/>
  <circle id="Ellipse_68" data-name="Ellipse 68" cx="2.108" cy="2.108" r="2.108" transform="translate(91.847 31.923)" fill="url(#linear-gradient)"/>
  <circle id="Ellipse_69" data-name="Ellipse 69" cx="2.108" cy="2.108" r="2.108" transform="translate(67.142 44.162)" fill="url(#linear-gradient)"/>
  <circle id="Ellipse_70" data-name="Ellipse 70" cx="2.108" cy="2.108" r="2.108" transform="translate(24.306 35.096)" fill="url(#linear-gradient)"/>
  <circle id="Ellipse_71" data-name="Ellipse 71" cx="2.108" cy="2.108" r="2.108" transform="translate(16.826 71.133)" fill="url(#linear-gradient)"/>
  <circle id="Ellipse_72" data-name="Ellipse 72" cx="1.139" cy="1.139" r="1.139" transform="translate(136.223 29.114)" fill="url(#linear-gradient)"/>
  <circle id="Ellipse_73" data-name="Ellipse 73" cx="1.139" cy="1.139" r="1.139" transform="translate(76.388 58.125)" fill="url(#linear-gradient)"/>
  <circle id="Ellipse_74" data-name="Ellipse 74" cx="1.139" cy="1.139" r="1.139" transform="translate(11.34 42.033)" fill="url(#linear-gradient)"/>
  <circle id="Ellipse_75" data-name="Ellipse 75" cx="1.139" cy="1.139" r="1.139" transform="translate(26.072 70.818)" fill="url(#linear-gradient)"/>
  <circle id="Ellipse_76" data-name="Ellipse 76" cx="1.139" cy="1.139" r="1.139" transform="translate(51.91 66.965)" fill="url(#linear-gradient)"/>
  <circle id="Ellipse_77" data-name="Ellipse 77" cx="1.139" cy="1.139" r="1.139" transform="translate(89.307 49.059)" fill="url(#linear-gradient)"/>
  <circle id="Ellipse_78" data-name="Ellipse 78" cx="0.789" cy="0.789" r="0.789" transform="translate(136.574 29.465)" fill="#82a9ff"/>
  <circle id="Ellipse_79" data-name="Ellipse 79" cx="1.473" cy="1.473" r="1.473" transform="translate(142.306 51.247)" fill="#64b5f6"/>
  <ellipse id="Ellipse_80" data-name="Ellipse 80" cx="6.5" cy="1" rx="6.5" ry="1" transform="translate(75 93)" opacity="0.2"/>
  <rect id="Rectangle_697" data-name="Rectangle 697" width="1" height="14" transform="translate(74 65)" fill="#fff"/>
  <rect id="Rectangle_698" data-name="Rectangle 698" width="1" height="14" transform="translate(90 66)" fill="#fff"/>
  <circle id="Ellipse_81" data-name="Ellipse 81" cx="2" cy="2" r="2" transform="translate(72 63)" fill="#fff"/>
  <ellipse id="Ellipse_82" data-name="Ellipse 82" cx="2.5" cy="2" rx="2.5" ry="2" transform="translate(88 63)" fill="#fff"/>
</svg>
