<svg xmlns="http://www.w3.org/2000/svg" width="41" height="41.001" viewBox="0 0 41 41.001">
  <g id="user" transform="translate(1401 -150.5)">
    <g id="Group_1697" data-name="Group 1697" transform="translate(-1401 150)">
      <path id="Path_1273" data-name="Path 1273" d="M16.536,34.457l-6.117,3.337a5.5,5.5,0,0,0-.982.7,20.488,20.488,0,0,0,26.324.068,5.426,5.426,0,0,0-1.078-.723l-6.55-3.275a2.5,2.5,0,0,1-1.381-2.234v-2.57a9.894,9.894,0,0,0,.62-.8,15.072,15.072,0,0,0,2.036-4.1A2.057,2.057,0,0,0,30.866,22.9V20.158a2.048,2.048,0,0,0-.685-1.52V14.672S31,8.5,22.638,8.5,15.1,14.672,15.1,14.672v3.966a2.045,2.045,0,0,0-.685,1.52V22.9a2.057,2.057,0,0,0,.948,1.726,13.613,13.613,0,0,0,2.48,5.131v2.507A2.5,2.5,0,0,1,16.536,34.457Z" transform="translate(-2.136 -1.811)" fill="#ecf0f1"/>
      <g id="Group_1696" data-name="Group 1696" transform="translate(0 0.5)">
        <path id="Path_1274" data-name="Path 1274" d="M20.851.5A20.488,20.488,0,0,0,7.309,36.674a5.447,5.447,0,0,1,.972-.692L14.4,32.646a2.5,2.5,0,0,0,1.3-2.193V27.946a13.6,13.6,0,0,1-2.48-5.131,2.057,2.057,0,0,1-.948-1.726V18.346a2.048,2.048,0,0,1,.685-1.52V12.86S12.143,6.689,20.5,6.689s7.543,6.171,7.543,6.171v3.966a2.045,2.045,0,0,1,.685,1.52v2.743a2.057,2.057,0,0,1-1.459,1.957,15.072,15.072,0,0,1-2.036,4.1,9.892,9.892,0,0,1-.62.8v2.57a2.5,2.5,0,0,0,1.381,2.234l6.55,3.275a5.454,5.454,0,0,1,1.075.721A20.5,20.5,0,0,0,20.851.5Z" transform="translate(0 -0.5)" fill="#556080"/>
      </g>
    </g>
  </g>
</svg>
